<svg id="Layer_1" data-name="Layer 1" xmlns="http://www.w3.org/2000/svg" viewBox="0 0 420.86 43.2"><title>logo</title><path d="M198.94,331.94A1,1,0,0,1,200,330.5h7a1.23,1.23,0,0,1,1.08.84l5.16,20.34h0.24l9.3-21.12a1.15,1.15,0,0,1,1-.66h1.08a1,1,0,0,1,1,.66l9.3,21.12h0.24l5.16-20.34a1.23,1.23,0,0,1,1.08-.84h7a1,1,0,0,1,1.08,1.44l-11.34,40.32a1.15,1.15,0,0,1-1.08.84h-1a1.22,1.22,0,0,1-1-.66l-11-24.54h-0.18l-10.92,24.54a1.22,1.22,0,0,1-1,.66h-1a1.15,1.15,0,0,1-1.08-.84Z" transform="translate(-198.88 -329.9)" style="fill:#231f20"/><path d="M256.24,331.64a1.14,1.14,0,0,1,1.14-1.14h14.46a13.38,13.38,0,1,1,.06,26.76h-6.3v14.1a1.18,1.18,0,0,1-1.14,1.14h-7.08a1.14,1.14,0,0,1-1.14-1.14V331.64ZM271.3,348.5a4.71,4.71,0,0,0,4.74-4.74,4.58,4.58,0,0,0-4.74-4.44h-5.7v9.18h5.7Z" transform="translate(-198.88 -329.9)" style="fill:#231f20"/><path d="M289.18,366.8l2.82-5a1.55,1.55,0,0,1,2-.36c0.24,0.12,4.56,3.3,8.52,3.3,2.4,0,4.14-1.5,4.14-3.6,0-2.52-2.1-4.44-6.18-6.06-5.16-2-11.64-6.06-11.64-13.26,0-5.94,4.62-11.94,13.86-11.94a22.32,22.32,0,0,1,12.84,4.5,1.52,1.52,0,0,1,.36,1.92l-3.06,4.62c-0.42.66-1.5,1.2-2,.78s-4.92-3.6-8.58-3.6c-2.16,0-3.78,1.44-3.78,3.06,0,2.22,1.8,3.9,6.54,5.82s12.12,5.52,12.12,13.68c0,6.18-5.34,12.42-14.16,12.42-7.8,0-12.12-3.24-13.5-4.62C288.88,367.88,288.7,367.64,289.18,366.8Z" transform="translate(-198.88 -329.9)" style="fill:#231f20"/><path d="M324.46,331.64a1.14,1.14,0,0,1,1.14-1.14h14.46a13.38,13.38,0,1,1,.06,26.76h-6.3v14.1a1.18,1.18,0,0,1-1.14,1.14H325.6a1.14,1.14,0,0,1-1.14-1.14V331.64Zm15.06,16.86a4.71,4.71,0,0,0,4.74-4.74,4.58,4.58,0,0,0-4.74-4.44h-5.7v9.18h5.7Z" transform="translate(-198.88 -329.9)" style="fill:#231f20"/><path d="M359.62,331.64a1.14,1.14,0,0,1,1.14-1.14H385.6a1.14,1.14,0,0,1,1.14,1.14v6.54a1.14,1.14,0,0,1-1.14,1.14H369v7.44h13.68a1.18,1.18,0,0,1,1.14,1.14v6.54a1.14,1.14,0,0,1-1.14,1.14H369v8.1H385.6a1.14,1.14,0,0,1,1.14,1.14v6.54a1.14,1.14,0,0,1-1.14,1.14H360.76a1.14,1.14,0,0,1-1.14-1.14V331.64Z" transform="translate(-198.88 -329.9)" style="fill:#231f20"/><path d="M394.78,331.94a1.42,1.42,0,0,1,1.44-1.44h7a1.46,1.46,0,0,1,1.44,1.44v15.78L418,331.1a1.78,1.78,0,0,1,1.14-.6h7.56a1.39,1.39,0,0,1,1.08,2.22l-14,17.58L429,370.22a1.41,1.41,0,0,1-1.14,2.22h-8.28a1.64,1.64,0,0,1-1.08-.42l-13.86-18.84v17.88a1.46,1.46,0,0,1-1.44,1.44h-7a1.42,1.42,0,0,1-1.44-1.44V331.94Z" transform="translate(-198.88 -329.9)" style="fill:#231f20"/><path d="M440.56,339.32H432a1.14,1.14,0,0,1-1.14-1.14v-6.54A1.14,1.14,0,0,1,432,330.5h26.64a1.14,1.14,0,0,1,1.14,1.14v6.54a1.14,1.14,0,0,1-1.14,1.14H450v32a1.18,1.18,0,0,1-1.14,1.14h-7.2a1.18,1.18,0,0,1-1.14-1.14v-32Z" transform="translate(-198.88 -329.9)" style="fill:#231f20"/><path d="M465.76,331.64a1.14,1.14,0,0,1,1.14-1.14h17.94a13,13,0,0,1,13.08,13c0,5.52-3.66,10-8.88,12.06l8.22,15.24a1.14,1.14,0,0,1-1,1.74h-8a1.1,1.1,0,0,1-1-.54l-8-15.9h-4.14v15.3A1.18,1.18,0,0,1,474,372.5H466.9a1.14,1.14,0,0,1-1.14-1.14V331.64Zm18.3,16.8a4.81,4.81,0,0,0,4.56-4.8,4.6,4.6,0,0,0-4.56-4.56h-8.88v9.36h8.88Z" transform="translate(-198.88 -329.9)" style="fill:#231f20"/><path d="M506,331.64a1.18,1.18,0,0,1,1.14-1.14h7.2a1.18,1.18,0,0,1,1.14,1.14v39.72a1.18,1.18,0,0,1-1.14,1.14h-7.2a1.18,1.18,0,0,1-1.14-1.14V331.64Z" transform="translate(-198.88 -329.9)" style="fill:#231f20"/><path d="M534.64,351l-12.12-18.78a1.08,1.08,0,0,1,1-1.68h8.76a1.29,1.29,0,0,1,1,.54l6.9,11.16h0.06l7-11.16a1.19,1.19,0,0,1,1-.54H557a1.07,1.07,0,0,1,1,1.68L545.8,351l12.6,19.86a1,1,0,0,1-1,1.68H549.1a1.34,1.34,0,0,1-1-.54l-7.86-12.12H540.1L532.42,372a1.31,1.31,0,0,1-1,.54h-8.34a1.07,1.07,0,0,1-1-1.68Z" transform="translate(-198.88 -329.9)" style="fill:#231f20"/><path d="M555.76,351m5.52-8.76L555.76,351l12.6-19.92a1.19,1.19,0,0,1,1-.54h8.76a1.07,1.07,0,0,1,1,1.68L566.92,351l12.6,19.86a1,1,0,0,1-1,1.68h-8.34a1.34,1.34,0,0,1-1-.54l-7.86-12.12L555.76,351" transform="translate(-198.88 -329.9)" style="fill:#a4ce39"/><path d="M575.76,351m5.52-8.76L575.76,351l12.6-19.92a1.19,1.19,0,0,1,1-.54h8.76a1.07,1.07,0,0,1,1,1.68L586.92,351l12.6,19.86a1,1,0,0,1-1,1.68h-8.34a1.34,1.34,0,0,1-1-.54l-7.86-12.12L575.76,351" transform="translate(-198.88 -329.9)" style="fill:#6ebe44"/><path d="M595.76,351m5.52-8.76L595.76,351l12.6-19.92a1.19,1.19,0,0,1,1-.54h8.76a1.07,1.07,0,0,1,1,1.68L606.92,351l12.6,19.86a1,1,0,0,1-1,1.68h-8.34a1.34,1.34,0,0,1-1-.54l-7.86-12.12L595.76,351" transform="translate(-198.88 -329.9)" style="fill:#359a46"/></svg>