<svg id="Layer_1" data-name="Layer 1" xmlns="http://www.w3.org/2000/svg" viewBox="0 0 413.55 100"><title>logo</title><path d="M130.82,131.28a50,50,0,1,0,50,50A50,50,0,0,0,130.82,131.28Z" transform="translate(-80.82 -131.28)" style="fill:#693"/><path d="M117.56,185.78a11.33,11.33,0,0,0-5.61,3.44,11.75,11.75,0,0,1,4.61-2.44,11.25,11.25,0,0,1,5.26-.3v-1.13A11.61,11.61,0,0,0,117.56,185.78Zm-5.74-9.53-10,2.63a5.47,5.47,0,0,0,.52.6l8.47-2.23a6.2,6.2,0,0,1-1.16,2.93A6,6,0,0,0,111.82,176.25Zm8.36,23.47c-14.05,3.79-21.49-12.5-23.74-21A47.36,47.36,0,0,1,94.83,170a3.23,3.23,0,0,1,0-.52c-0.73,0-1.08.42-1,1.52a47.39,47.39,0,0,0,1.61,8.76c2.25,8.45,9.69,24.74,23.74,21a14.27,14.27,0,0,0,7.08-4.24A14.56,14.56,0,0,1,120.18,199.72Zm2.64-33.44v1h5.51c-0.11-.35-0.23-0.67-0.34-1h-5.17Z" transform="translate(-80.82 -131.28)" style="fill:#360"/><path d="M129.57,174.52a6.9,6.9,0,0,1,4.48,4l2.76,0.78s-0.38-5.38-5.25-6.77c-4.56-1.29-7.36,2.53-7.7,3A6.46,6.46,0,0,1,129.57,174.52Zm22,4c-4.56-1.3-7.36,2.53-7.7,3a6.45,6.45,0,0,1,5.7-1,6.91,6.91,0,0,1,4.48,4l2.77,0.79S156.43,179.91,151.57,178.53Zm-2.75,14.19-23-6.43a10.36,10.36,0,0,0,1.2,2.9l19.36,5.41A10.31,10.31,0,0,0,148.82,192.72Zm-15.94,13.84c-18.21-4.88-16-28.08-13.06-39.07a65.91,65.91,0,0,1,3.49-10.15c-0.62-.13-1.13.2-1.63,1.23a61.8,61.8,0,0,0-3.86,10.93c-2.94,11-5.15,34.19,13.06,39.07,8.58,2.3,15.27-1.19,20.25-6.68C146.4,206.16,140.36,208.56,132.88,206.55Z" transform="translate(-80.82 -131.28)" style="fill:#360"/><path d="M122.82,194.28V189.6l-13,3.69s1-5.58,7.74-7.51a11.25,11.25,0,0,1,5.26-.3v-19.2h6.51a39,39,0,0,0-2-5c-1-1.94-1.93-.65-4.15,1.2A32.47,32.47,0,0,1,99,169c-2.84-.49-4.33-1.11-4.19,1a47.39,47.39,0,0,0,1.61,8.76c2.25,8.45,9.69,24.74,23.74,21a14.12,14.12,0,0,0,8.06-5.44h-5.42Zm-21-15.4,10-2.63a5.6,5.6,0,0,1-4,4.83A5.73,5.73,0,0,1,101.84,178.88Z" transform="translate(-80.82 -131.28)" style="fill:#e2574c"/><path d="M160.41,166.51a41.89,41.89,0,0,1-31.35-8.4c-2.87-2.4-4.13-4.07-5.37-1.55a61.85,61.85,0,0,0-3.86,10.93c-2.94,11-5.15,34.19,13.06,39.07s27.89-16.31,30.84-27.31a62.05,62.05,0,0,0,2.12-11.4C166,165,164.1,165.86,160.41,166.51Zm-36.58,9.09s2.87-4.46,7.74-3.08,5.25,6.77,5.25,6.77Zm11.88,20c-8.56-2.51-9.88-9.33-9.88-9.33l23,6.43S144.18,198.1,135.71,195.62Zm8.13-14s2.86-4.46,7.73-3.07,5.25,6.77,5.25,6.77Z" transform="translate(-80.82 -131.28)" style="fill:#ededed"/><path d="M118.28,190.89l-8.46,2.4A10.27,10.27,0,0,1,117,186l-4.79-18-0.41.13A30.74,30.74,0,0,1,99,169c-2.84-.49-4.33-1.11-4.19,1a47.39,47.39,0,0,0,1.61,8.76c2.25,8.45,9.69,24.74,23.74,21l0.41-.13Zm-16.44-12,10-2.63a5.6,5.6,0,0,1-4,4.83A5.73,5.73,0,0,1,101.84,178.88Z" transform="translate(-80.82 -131.28)" style="fill:#d65348"/><path d="M136.1,195.72l-0.39-.09c-8.56-2.51-9.88-9.33-9.88-9.33l11.86,3.31L144,165.48l-0.08,0a39.75,39.75,0,0,1-14.83-7.36c-2.87-2.4-4.13-4.07-5.37-1.55a62,62,0,0,0-3.86,10.93c-2.94,11-5.15,34.19,13.06,39.07l0.37,0.08ZM123.83,175.6s2.87-4.46,7.74-3.08,5.25,6.77,5.25,6.77Z" transform="translate(-80.82 -131.28)" style="fill:#e1e1e1"/><path d="M118.71,190.77l-2.27.64a25.94,25.94,0,0,0,3,8.48c0.26-.06.51-0.11,0.78-0.18a16.46,16.46,0,0,0,1.94-.67A24,24,0,0,1,118.71,190.77Zm-0.89-21.28a58,58,0,0,0-1.92,16.9,13.12,13.12,0,0,1,1.66-.6l0.42-.09a57,57,0,0,1,1.84-18.2c0.32-1.18.63-2.27,0.95-3.29-0.51.32-1.06,0.66-1.68,1C118.67,166.49,118.24,167.91,117.82,169.48Z" transform="translate(-80.82 -131.28)" style="fill:#c04b41"/><path d="M207.55,189.11c-1.14,4.14-2.52,4.2-4.68,4.2h-3.3c-3.42,0-3.9-1.74-4.56-4.8-1.26-6.06-6.06-34.5-6.06-36.24,0-1.2.18-1.56,1.5-1.56h6.48c1.56,0,1.86.9,2.1,2.58l3.9,26a0.24,0.24,0,0,0,.24.3,0.32,0.32,0,0,0,.3-0.3c0.06-.3,1.92-14,1.92-14.94-0.48-3.18-1.62-9.84-1.74-11.22a4.25,4.25,0,0,1-.06-0.84c0-1.08.36-1.56,1.44-1.56s2.76,0.12,4,.12c0.54,0,4.62-.12,5.16-0.12,1,0,1.38.42,1.38,1.56,0,0.24-.06.54-0.06,0.84-0.12,1.38-1,8.1-1,11.28,0,1.08,2.7,14.88,2.7,14.88a0.24,0.24,0,0,0,.24.3,0.32,0.32,0,0,0,.3-0.3l2.58-26.16c0.06-1.5.6-2.4,2-2.4h7c1,0,1.14.42,1.14,1.44,0,1.86-4,30.3-5.22,36.36-0.54,2.88-.84,4.8-3.9,4.8H217c-2.28,0-3.3,0-4.26-4.2-0.84-3.54-1.92-8-2.64-8C209.65,181.13,208.33,186.23,207.55,189.11Z" transform="translate(-80.82 -131.28)"/><path d="M242.29,179.69v8.82c0,2.4,0,4.8-3.6,4.8h-3c-3.6,0-3.6-2.4-3.6-4.8v-33c0-2.4,0-4.8,3.6-4.8h13c6.48,0,10.14,5.28,10.14,13.68a28,28,0,0,1-1.86,9.72c-1.92,4.08-7.62,4.68-11,4.68a15.23,15.23,0,0,1-2.22-.12C242.35,178.67,242.29,179.15,242.29,179.69Zm-0.06-17.94c0,0.78.06,1.8,0.06,3.06s-0.06,2.28-.06,3c0,2,.36,2.34,2.76,2.34,3.18,0,3.3-2.64,3.3-5.34s-0.6-6-3.3-6C242.59,158.81,242.23,159.59,242.23,161.75Z" transform="translate(-80.82 -131.28)"/><path d="M272.77,150.41c5,0,8.34.9,8.34,2.58v4.62c0,0.66-.24,1.8-2.28,1.8h-0.48c-1,0-3.12-.66-4.86-0.66-1.44,0-2.58.48-2.58,2.4s0.54,2.82,2.88,4.74c7.14,5.88,8.58,10.08,8.58,14.94,0,2.76-.06,5.28-1.62,7.62a11.41,11.41,0,0,1-6.42,4.5,25.27,25.27,0,0,1-5.76.66c-4.44,0-8.76-.84-8.76-3.24v-4.62c0-.72.6-1.44,2.22-1.44s2.88,0.9,6.3.9c1.68,0,4-1.32,4-3.18,0-1.38-.06-2.4-3.72-6-5.58-5.46-8.22-8-8.22-12.9C260.35,151.31,268,150.41,272.77,150.41Z" transform="translate(-80.82 -131.28)"/><path d="M294.25,179.69v8.82c0,2.4,0,4.8-3.6,4.8h-3c-3.6,0-3.6-2.4-3.6-4.8v-33c0-2.4,0-4.8,3.6-4.8h13c6.48,0,10.14,5.28,10.14,13.68a28,28,0,0,1-1.86,9.72c-1.92,4.08-7.62,4.68-11,4.68a15.22,15.22,0,0,1-2.22-.12C294.31,178.67,294.25,179.15,294.25,179.69Zm-0.06-17.94c0,0.78.06,1.8,0.06,3.06s-0.06,2.28-.06,3c0,2,.36,2.34,2.76,2.34,3.18,0,3.3-2.64,3.3-5.34s-0.6-6-3.3-6C294.55,158.81,294.19,159.59,294.19,161.75Z" transform="translate(-80.82 -131.28)"/><path d="M326.53,164.87c0.24,0,2.22-7.92,3.54-11.76l0.12-.3c0.66-2,.66-2.1,5.7-2.1h0.78c2.76,0,3.9,0,3.9,1.8,0,2.1-6.9,16.68-6.9,18.24s7.62,18.36,7.62,20.76c0,1.68-2.46,2-4.68,2-1.26,0-2.4-.12-3-0.12-3.66,0-3.06-.36-4.2-3.36l-3.24-11.52a0.31,0.31,0,0,0-.6,0L322.87,190c-1.08,3.3-1.32,3.36-5.22,3.36h-1.8c-2,0-4.08-.24-4.08-1.86,0-1.8,6.78-19.2,6.78-20.76s-6.18-16.14-6.18-18.24c0-1.62,1.38-1.86,3.78-1.86,1.26,0,2.88.06,4.74,0.06,1.38,0,1.68.78,2.1,1.74,0,0.06.12,0.18,0.12,0.24s0.12,0.18.12,0.24,0.06,0.12.06,0.18c1.14,3.84,2.88,11.4,2.94,11.52A0.31,0.31,0,0,0,326.53,164.87Z" transform="translate(-80.82 -131.28)"/><path d="M195.4,214.62c-0.42,1.52-.92,1.54-1.72,1.54h-1.21c-1.25,0-1.43-.64-1.67-1.76-0.46-2.22-2.22-12.65-2.22-13.29,0-.44.07-0.57,0.55-0.57h2.38c0.57,0,.68.33,0.77,0.95L193.7,211a0.09,0.09,0,0,0,.09.11,0.12,0.12,0,0,0,.11-0.11c0-.11.7-5.13,0.7-5.48-0.18-1.17-.59-3.61-0.64-4.11a1.56,1.56,0,0,1,0-.31,0.47,0.47,0,0,1,.53-0.57c0.37,0,1,0,1.45,0l1.89,0a0.46,0.46,0,0,1,.51.57c0,0.09,0,.2,0,0.31,0,0.51-.37,3-0.37,4.14,0,0.4,1,5.46,1,5.46a0.09,0.09,0,0,0,.09.11,0.12,0.12,0,0,0,.11-0.11l0.95-9.59a0.73,0.73,0,0,1,.73-0.88h2.57c0.35,0,.42.15,0.42,0.53,0,0.68-1.47,11.11-1.91,13.33-0.2,1.06-.31,1.76-1.43,1.76h-1.58c-0.84,0-1.21,0-1.56-1.54-0.31-1.3-.7-2.93-1-2.93A15.3,15.3,0,0,0,195.4,214.62Z" transform="translate(-80.82 -131.28)" style="fill:#693"/><path d="M204.3,206.57c0-3.54.33-6.14,5-6.14,4.42,0,4.73,2.55,4.73,6.05,0,1.32.07,2.62,0.07,3.78,0,3.48-.55,6-4.8,6-4.64,0-5-2.6-5-6.12,0-.59,0-1.19,0-1.8S204.3,207.14,204.3,206.57Zm3.76-1.85v6.93c0,0.66,0,1.54,1.1,1.54s1.1-.88,1.1-1.54v-6.93A1.11,1.11,0,1,0,208.07,204.72Z" transform="translate(-80.82 -131.28)" style="fill:#693"/><path d="M220.37,200.54c3.28,0,4.2,2.35,4.2,5,0,1.58,0,2.6-1.28,3.65-0.62.53-1,.22-1,1.06s0.29,2,1,2a2.93,2.93,0,0,0,.7-0.11c0.7,0,.81.59,0.81,1.61,0,0.48,0,1.08,0,1.74,0,0.44-.18.84-1.32,0.84-2,0-3.06-1.5-3.48-3.12-0.53-2-1.19-2.4-1.32-2.4s-0.18.35-.18,0.53v3.12c0,0.88,0,1.76-1.32,1.76h-1.54c-0.88,0-.88-0.88-0.88-1.76V202.3c0-.88,0-1.76,1.32-1.76h4.29Zm-1.89,3.92c0,0.29,0,.79,0,1.25s0,0.84,0,1.1c0,0.73.13,0.86,1,.86s1.21-1,1.21-2-0.22-2.2-1.21-2.2S218.47,203.66,218.47,204.45Z" transform="translate(-80.82 -131.28)" style="fill:#693"/><path d="M230,200.54c4.84,0,5.5,3.08,5.5,7.81,0,4.51-.44,7.81-5.5,7.81h-3.3c-1.32,0-1.32-.88-1.32-1.76V202.3c0-.88,0-1.76,1.32-1.76H230Zm-0.9,3.65c0,2.49,0,5.19,0,7.79,0,0.57,0,1.1.44,1.1,1.65,0,1.76-1.32,1.76-4.84,0-3.08-.11-4.73-1.76-4.73C229.21,203.51,229.14,203.73,229.14,204.19Z" transform="translate(-80.82 -131.28)" style="fill:#693"/><path d="M240,211.16v3.23c0,0.88,0,1.76-1.32,1.76h-1.1c-1.32,0-1.32-.88-1.32-1.76V202.3c0-.88,0-1.76,1.32-1.76h4.77c2.38,0,3.72,1.94,3.72,5a10.25,10.25,0,0,1-.68,3.56c-0.7,1.5-2.79,1.72-4,1.72a5.58,5.58,0,0,1-.81,0C240,210.79,240,211,240,211.16Zm0-6.58c0,0.29,0,.66,0,1.12s0,0.84,0,1.1c0,0.73.13,0.86,1,.86,1.17,0,1.21-1,1.21-2s-0.22-2.2-1.21-2.2S240,203.79,240,204.58Z" transform="translate(-80.82 -131.28)" style="fill:#693"/><path d="M252.2,200.54c3.28,0,4.2,2.35,4.2,5,0,1.58,0,2.6-1.28,3.65-0.62.53-1,.22-1,1.06s0.29,2,1,2a2.93,2.93,0,0,0,.7-0.11c0.7,0,.81.59,0.81,1.61,0,0.48,0,1.08,0,1.74,0,0.44-.18.84-1.32,0.84-2,0-3.06-1.5-3.48-3.12-0.53-2-1.19-2.4-1.32-2.4s-0.18.35-.18,0.53v3.12c0,0.88,0,1.76-1.32,1.76h-1.54c-0.88,0-.88-0.88-0.88-1.76V202.3c0-.88,0-1.76,1.32-1.76h4.29Zm-1.89,3.92c0,0.29,0,.79,0,1.25s0,0.84,0,1.1c0,0.73.13,0.86,1,.86s1.21-1,1.21-2-0.22-2.2-1.21-2.2S250.31,203.66,250.31,204.45Z" transform="translate(-80.82 -131.28)" style="fill:#693"/><path d="M261,212.13a0.85,0.85,0,0,0,.92.73c1.25,0,1.67,0,2.13,0,0.92,0,1.21.26,1.21,0.92v1.54a0.73,0.73,0,0,1-.88.88h-5.81c-1.32,0-1.32-1.32-1.32-1.76V202.3c0-.88,0-1.76,1.32-1.76h5.68a0.87,0.87,0,0,1,1,.66v1.87c0,0.53-.44.55-1,0.55-0.86,0-1.54,0-2.09,0-1.21,0-1.21.44-1.21,1.14,0,1.43,0,1.8,1.1,1.8,1.36,0,1.58,0,2.09,0a0.87,0.87,0,0,1,.81,1v1.41c0,0.66-.46.7-1,0.7-1.12,0-1.83,0-2.29,0-0.7,0-.7.31-0.7,1v1.54Z" transform="translate(-80.82 -131.28)" style="fill:#693"/><path d="M270.61,200.43c1.83,0,3.06.33,3.06,0.95v1.69a0.67,0.67,0,0,1-.84.66h-0.18c-0.35,0-1.14-.24-1.78-0.24a0.8,0.8,0,0,0-.95.88A2,2,0,0,0,271,206.1c2.62,2.16,3.15,3.7,3.15,5.48a4.71,4.71,0,0,1-.59,2.79,4.19,4.19,0,0,1-2.35,1.65,9.28,9.28,0,0,1-2.11.24c-1.63,0-3.21-.31-3.21-1.19v-1.69c0-.26.22-0.53,0.81-0.53a17.94,17.94,0,0,0,2.31.33,1.43,1.43,0,0,0,1.45-1.17c0-.51,0-0.88-1.36-2.2-2-2-3-2.93-3-4.73C266.06,200.76,268.85,200.43,270.61,200.43Z" transform="translate(-80.82 -131.28)" style="fill:#693"/><path d="M279.32,200.43c1.83,0,3.06.33,3.06,0.95v1.69a0.67,0.67,0,0,1-.84.66h-0.18c-0.35,0-1.14-.24-1.78-0.24a0.8,0.8,0,0,0-.95.88,2,2,0,0,0,1.06,1.74c2.62,2.16,3.15,3.7,3.15,5.48a4.71,4.71,0,0,1-.59,2.79A4.19,4.19,0,0,1,279.9,216a9.28,9.28,0,0,1-2.11.24c-1.63,0-3.21-.31-3.21-1.19v-1.69c0-.26.22-0.53,0.81-0.53a17.94,17.94,0,0,0,2.31.33,1.43,1.43,0,0,0,1.45-1.17c0-.51,0-0.88-1.36-2.2-2-2-3-2.93-3-4.73C274.77,200.76,277.56,200.43,279.32,200.43Z" transform="translate(-80.82 -131.28)" style="fill:#693"/><path d="M297.78,210.68a0.18,0.18,0,0,0,.13-0.09c1.43-1.76-.22-2.33,2-2.33H300c0.75,0,1.39,0,1.39.53a5.4,5.4,0,0,1-.57,2.24c-0.68,1.32-1.23,1.74-1.23,2a7.32,7.32,0,0,0,1.28,1.54l0.09,0.09a1.14,1.14,0,0,1,.51.92c0,0.48-.24.55-0.88,0.55h-2.75c-0.92,0-.9-1.08-1.41-1.08a8.16,8.16,0,0,1-4.12,1.19c-2.73,0-4.6-1.41-4.6-4.66,0-2.88,2.64-3.89,2.64-4.51a5.51,5.51,0,0,1-1-3.17c0-2.4,1.91-3.5,4.55-3.5,2.18,0,4.16,1.12,4.16,3.48a4.09,4.09,0,0,1-.66,2.55c-0.59,1-1.67,1.34-1.67,1.69a0.24,0.24,0,0,0,0,.11A17,17,0,0,0,297.78,210.68Zm-5-.46a0.91,0.91,0,0,0-.44-0.4,1.68,1.68,0,0,0-.79,1.61,1.79,1.79,0,0,0,1.8,1.94c0.13,0,1.56,0,1.56-.37a0.13,0.13,0,0,0,0-.09Zm1.06-4.07c0.57,0,1.1-1,1.1-1.72a1.11,1.11,0,0,0-1.06-1.25,1.15,1.15,0,0,0-1.14,1.32C292.74,205.2,293.23,206.15,293.84,206.15Z" transform="translate(-80.82 -131.28)" style="fill:#693"/><path d="M311,200.43c1.83,0,3.06.33,3.06,0.95v1.69a0.67,0.67,0,0,1-.84.66h-0.18c-0.35,0-1.14-.24-1.78-0.24a0.8,0.8,0,0,0-.95.88,2,2,0,0,0,1.06,1.74c2.62,2.16,3.15,3.7,3.15,5.48a4.71,4.71,0,0,1-.59,2.79,4.19,4.19,0,0,1-2.35,1.65,9.28,9.28,0,0,1-2.11.24c-1.63,0-3.21-.31-3.21-1.19v-1.69c0-.26.22-0.53,0.81-0.53a17.94,17.94,0,0,0,2.31.33,1.43,1.43,0,0,0,1.45-1.17c0-.51,0-0.88-1.36-2.2-2-2-3-2.93-3-4.73C306.49,200.76,309.29,200.43,311,200.43Z" transform="translate(-80.82 -131.28)" style="fill:#693"/><path d="M318.92,211.16v3.23c0,0.88,0,1.76-1.32,1.76h-1.1c-1.32,0-1.32-.88-1.32-1.76V202.3c0-.88,0-1.76,1.32-1.76h4.78c2.38,0,3.72,1.94,3.72,5a10.25,10.25,0,0,1-.68,3.56c-0.7,1.5-2.79,1.72-4,1.72a5.59,5.59,0,0,1-.81,0C318.94,210.79,318.92,211,318.92,211.16Zm0-6.58c0,0.29,0,.66,0,1.12s0,0.84,0,1.1c0,0.73.13,0.86,1,.86,1.17,0,1.21-1,1.21-2s-0.22-2.2-1.21-2.2S318.9,203.79,318.9,204.58Z" transform="translate(-80.82 -131.28)" style="fill:#693"/><path d="M329.26,212.13a0.85,0.85,0,0,0,.92.73c1.25,0,1.67,0,2.13,0,0.92,0,1.21.26,1.21,0.92v1.54a0.73,0.73,0,0,1-.88.88h-5.81c-1.32,0-1.32-1.32-1.32-1.76V202.3c0-.88,0-1.76,1.32-1.76h5.68a0.87,0.87,0,0,1,1,.66v1.87c0,0.53-.44.55-1,0.55-0.86,0-1.54,0-2.09,0-1.21,0-1.21.44-1.21,1.14,0,1.43,0,1.8,1.1,1.8,1.36,0,1.58,0,2.09,0a0.87,0.87,0,0,1,.81,1v1.41c0,0.66-.46.7-1,0.7-1.12,0-1.83,0-2.29,0-0.7,0-.7.31-0.7,1v1.54Z" transform="translate(-80.82 -131.28)" style="fill:#693"/><path d="M344.44,215.5c0,0.4-.35.66-1.14,0.66h-1.14c-1.41,0-1.5-.31-2-1.74-1-2.88-1.36-4.86-2-4.86-0.13,0-.18.2-0.18,0.48s0,0.68,0,1.06v3.3c0,0.88,0,1.76-1.32,1.76h-1.1c-1.32,0-1.32-.88-1.32-1.76V202.3c0-.88,0-1.76,1.32-1.76h1.1c1.32,0,1.32.88,1.32,1.76,0,3.89,0,3.89.11,3.89,0.66,0,1.28-2.6,1.5-3.12,0.73-1.74.79-2.53,1.91-2.53h1.28c0.75,0,1.36,0,1.36.62a2.85,2.85,0,0,1-.37,1.17c-0.7,1.45-2.64,4.93-2.64,5.06a2.42,2.42,0,0,0,.24.55C341.65,208.41,344.38,214.38,344.44,215.5Z" transform="translate(-80.82 -131.28)" style="fill:#693"/><path d="M351,214.55c0,0.84-.09,1.61-1.32,1.61h-1.1c-1.32,0-1.32-.88-1.32-1.76V204.34c0-.55-0.11-0.68-0.57-0.68l-0.64,0c-0.55,0-1-.09-1-0.62V201.2a0.87,0.87,0,0,1,1-.66h6.07a0.87,0.87,0,0,1,1,.66v1.87c0,0.53-.44.62-1,0.62l-0.62,0c-0.55,0-.59.13-0.59,0.68v10.21Z" transform="translate(-80.82 -131.28)" style="fill:#693"/><path d="M359.36,200.54c3.28,0,4.2,2.35,4.2,5,0,1.58,0,2.6-1.28,3.65-0.62.53-1,.22-1,1.06s0.29,2,1,2a3,3,0,0,0,.7-0.11c0.7,0,.81.59,0.81,1.61,0,0.48,0,1.08,0,1.74,0,0.44-.18.84-1.32,0.84-2,0-3.06-1.5-3.48-3.12-0.53-2-1.19-2.4-1.32-2.4s-0.18.35-.18,0.53v3.12c0,0.88,0,1.76-1.32,1.76h-1.54c-0.88,0-.88-0.88-0.88-1.76V202.3c0-.88,0-1.76,1.32-1.76h4.29Zm-1.89,3.92c0,0.29,0,.79,0,1.25s0,0.84,0,1.1c0,0.73.13,0.86,1,.86s1.21-1,1.21-2-0.22-2.2-1.21-2.2S357.47,203.66,357.47,204.45Z" transform="translate(-80.82 -131.28)" style="fill:#693"/><path d="M368.16,214.4c0,0.88,0,1.76-1.32,1.76h-1.1c-1.32,0-1.32-.88-1.32-1.76V202.3c0-.88,0-1.76,1.32-1.76h1.1c1.32,0,1.32.88,1.32,1.76v12.1Z" transform="translate(-80.82 -131.28)" style="fill:#693"/><path d="M374.19,205.73c0.09,0,.81-2.9,1.3-4.31l0-.11c0.24-.73.24-0.77,2.09-0.77h0.29c1,0,1.43,0,1.43.66s-2.53,6.12-2.53,6.69,2.79,6.73,2.79,7.61c0,0.62-.9.73-1.72,0.73-0.46,0-.88,0-1.1,0-1.34,0-1.12-.13-1.54-1.23l-1.19-4.22a0.11,0.11,0,0,0-.22,0l-1,4.22c-0.4,1.21-.48,1.23-1.92,1.23h-0.66c-0.73,0-1.5-.09-1.5-0.68s2.49-7,2.49-7.61S369,202,369,201.2c0-.59.51-0.68,1.39-0.68l1.74,0a0.77,0.77,0,0,1,.77.64s0,0.07,0,.09,0,0.07,0,.09,0,0,0,.07c0.42,1.41,1.06,4.18,1.08,4.22A0.11,0.11,0,0,0,374.19,205.73Z" transform="translate(-80.82 -131.28)" style="fill:#693"/><path d="M388.35,214.4c0,0.88,0,1.76-1.32,1.76h-1.1c-1.32,0-1.32-.88-1.32-1.76V202.3c0-.88,0-1.76,1.32-1.76H387c1.32,0,1.32.88,1.32,1.76v12.1Z" transform="translate(-80.82 -131.28)" style="fill:#693"/><path d="M396,207.58c0.07,0,.11-0.07.11-0.22V202.3c0-.88,0-1.76,1.32-1.76h1.1c1.32,0,1.32.88,1.32,1.76v12.1c0,0.88,0,1.76-1.32,1.76-2,0-2.13-.35-2.44-1l-2.93-6.36a0.38,0.38,0,0,0-.18-0.22c-0.07,0-.09.09-0.09,0.22l0,5.61c0,0.88,0,1.76-1.32,1.76h-1.1c-1.32,0-1.32-.88-1.32-1.76V202.3c0-.88,0-1.76,1.32-1.76h1.17a1.11,1.11,0,0,1,1.3.77l2.84,6.05A0.28,0.28,0,0,0,396,207.58Z" transform="translate(-80.82 -131.28)" style="fill:#693"/><path d="M406.37,214.55c0,0.84-.09,1.61-1.32,1.61H404c-1.32,0-1.32-.88-1.32-1.76V204.34c0-.55-0.11-0.68-0.57-0.68l-0.64,0c-0.55,0-1-.09-1-0.62V201.2a0.87,0.87,0,0,1,1-.66h6.07a0.87,0.87,0,0,1,1,.66v1.87c0,0.53-.44.62-1,0.62l-0.62,0c-0.55,0-.59.13-0.59,0.68v10.21Z" transform="translate(-80.82 -131.28)" style="fill:#693"/><path d="M412.91,212.13a0.85,0.85,0,0,0,.92.73c1.25,0,1.67,0,2.13,0,0.92,0,1.21.26,1.21,0.92v1.54a0.73,0.73,0,0,1-.88.88h-5.81c-1.32,0-1.32-1.32-1.32-1.76V202.3c0-.88,0-1.76,1.32-1.76h5.68a0.87,0.87,0,0,1,1,.66v1.87c0,0.53-.44.55-1,0.55-0.86,0-1.54,0-2.09,0-1.21,0-1.21.44-1.21,1.14,0,1.43,0,1.8,1.1,1.8,1.36,0,1.58,0,2.09,0a0.87,0.87,0,0,1,.81,1v1.41c0,0.66-.46.7-1,0.7-1.12,0-1.83,0-2.29,0-0.7,0-.7.31-0.7,1v1.54Z" transform="translate(-80.82 -131.28)" style="fill:#693"/><path d="M423.55,200.54c3.28,0,4.2,2.35,4.2,5,0,1.58,0,2.6-1.28,3.65-0.62.53-1,.22-1,1.06s0.29,2,1,2a3,3,0,0,0,.7-0.11c0.7,0,.81.59,0.81,1.61,0,0.48,0,1.08,0,1.74,0,0.44-.18.84-1.32,0.84-2,0-3.06-1.5-3.48-3.12-0.53-2-1.19-2.4-1.32-2.4s-0.18.35-.18,0.53v3.12c0,0.88,0,1.76-1.32,1.76h-1.54c-0.88,0-.88-0.88-0.88-1.76V202.3c0-.88,0-1.76,1.32-1.76h4.29Zm-1.89,3.92c0,0.29,0,.79,0,1.25s0,0.84,0,1.1c0,0.73.13,0.86,1,.86s1.21-1,1.21-2-0.22-2.2-1.21-2.2S421.66,203.66,421.66,204.45Z" transform="translate(-80.82 -131.28)" style="fill:#693"/><path d="M435.61,210.13c0-.68-0.4-0.7-0.81-0.7-0.73,0-.81-0.35-0.81-0.95v-0.22c0-1.78,0-1.89,1.06-1.89h3.15c0.95,0,.95.46,0.95,0.88v6.86c0,2.16-2.13,2.16-3.39,2.16-3.5,0-7.31-1.58-7.31-8.08,0-6.31,4-7.77,6.75-7.77,2.29,0,3.21.24,3.21,0.92v1.74a0.53,0.53,0,0,1-.64.53c-0.68,0-1.36-.29-2.35-0.29-2.79,0-3.12,3.89-3.12,4.8,0,1.8.33,5,2.57,5,0.44,0,.75-0.22.75-1v-2Z" transform="translate(-80.82 -131.28)" style="fill:#693"/><path d="M445.46,200.54c3.28,0,4.2,2.35,4.2,5,0,1.58,0,2.6-1.28,3.65-0.62.53-1,.22-1,1.06s0.29,2,1,2a3,3,0,0,0,.7-0.11c0.7,0,.81.59,0.81,1.61,0,0.48,0,1.08,0,1.74,0,0.44-.18.84-1.32,0.84-2,0-3.06-1.5-3.48-3.12-0.53-2-1.19-2.4-1.32-2.4s-0.18.35-.18,0.53v3.12c0,0.88,0,1.76-1.32,1.76h-1.54c-0.88,0-.88-0.88-0.88-1.76V202.3c0-.88,0-1.76,1.32-1.76h4.29Zm-1.89,3.92c0,0.29,0,.79,0,1.25s0,0.84,0,1.1c0,0.73.13,0.86,1,.86s1.21-1,1.21-2-0.22-2.2-1.21-2.2S443.57,203.66,443.57,204.45Z" transform="translate(-80.82 -131.28)" style="fill:#693"/><path d="M461.35,215.06c0,1-.68,1.1-1.94,1.1h-1.17c-1.36,0-.68-3.3-1.56-3.3h-1.76c-0.88,0-.37,3.3-1.69,3.3h-1c-1.14,0-1.83-.09-1.83-1.1,0-1.32.53-2.49,2.24-12.76,0.18-1.1.62-1.76,1.5-1.76h3.39c0.88,0,1.32.66,1.54,1.76C460.54,211.32,461.35,213.74,461.35,215.06Zm-6.4-5.85c0,0.35.15,0.35,0.86,0.35s0.86,0,.86-0.33a2.24,2.24,0,0,0,0-.35c-0.26-2.16-.35-4.82-0.84-4.82s-0.62,2.64-.84,4.82A1.86,1.86,0,0,0,454.95,209.21Z" transform="translate(-80.82 -131.28)" style="fill:#693"/><path d="M466,214.55c0,0.84-.09,1.61-1.32,1.61h-1.1c-1.32,0-1.32-.88-1.32-1.76V204.34c0-.55-0.11-0.68-0.57-0.68l-0.64,0c-0.55,0-1-.09-1-0.62V201.2a0.87,0.87,0,0,1,1-.66h6.07a0.87,0.87,0,0,1,1,.66v1.87c0,0.53-.44.62-1,0.62l-0.62,0c-0.55,0-.59.13-0.59,0.68v10.21Z" transform="translate(-80.82 -131.28)" style="fill:#693"/><path d="M472.55,214.4c0,0.88,0,1.76-1.32,1.76h-1.1c-1.32,0-1.32-.88-1.32-1.76V202.3c0-.88,0-1.76,1.32-1.76h1.1c1.32,0,1.32.88,1.32,1.76v12.1Z" transform="translate(-80.82 -131.28)" style="fill:#693"/><path d="M473.25,206.57c0-3.54.33-6.14,5-6.14,4.42,0,4.73,2.55,4.73,6.05,0,1.32.07,2.62,0.07,3.78,0,3.48-.55,6-4.8,6-4.64,0-5-2.6-5-6.12,0-.59,0-1.19,0-1.8S473.25,207.14,473.25,206.57Zm3.76-1.85v6.93c0,0.66,0,1.54,1.1,1.54s1.1-.88,1.1-1.54v-6.93A1.11,1.11,0,1,0,477,204.72Z" transform="translate(-80.82 -131.28)" style="fill:#693"/><path d="M490.52,207.58c0.07,0,.11-0.07.11-0.22V202.3c0-.88,0-1.76,1.32-1.76H493c1.32,0,1.32.88,1.32,1.76v12.1c0,0.88,0,1.76-1.32,1.76-2,0-2.13-.35-2.44-1l-2.93-6.36a0.38,0.38,0,0,0-.18-0.22c-0.07,0-.09.09-0.09,0.22l0,5.61c0,0.88,0,1.76-1.32,1.76H485c-1.32,0-1.32-.88-1.32-1.76V202.3c0-.88,0-1.76,1.32-1.76h1.17a1.11,1.11,0,0,1,1.3.77l2.84,6.05A0.28,0.28,0,0,0,490.52,207.58Z" transform="translate(-80.82 -131.28)" style="fill:#693"/></svg>